<svg width="111" height="111" viewBox="0 0 111 111" fill="none" xmlns="http://www.w3.org/2000/svg">
<g id="Group 518696">
<g id="Group">
<g id="Group_2">
<path id="Vector" d="M22.1934 11.0977H11.0938V22.1973H22.1934V11.0977Z" fill="white"/>
</g>
</g>
<g id="Group_3">
<g id="Group_4">
<path id="Vector_2" d="M77.6983 0V5.54982H72.1484V11.0996H77.6983V33.2989H83.2481V38.8487H77.6983V44.3985H83.2481H88.7979V33.2989H105.447V38.8487H110.997V33.2989V0H77.6983ZM105.447 27.7491H83.2481V5.54982H105.447V27.7491Z" fill="white"/>
</g>
</g>
<g id="Group_5">
<g id="Group_6">
<path id="Vector_3" d="M99.8926 11.0977H88.793V22.1973H99.8926V11.0977Z" fill="white"/>
</g>
</g>
<g id="Group_7">
<g id="Group_8">
<path id="Vector_4" d="M22.1934 88.8008H11.0938V99.9004H22.1934V88.8008Z" fill="white"/>
</g>
</g>
<g id="Group_9">
<g id="Group_10">
<path id="Vector_5" d="M83.2451 77.6953H77.6953V83.2451H83.2451V77.6953Z" fill="white"/>
</g>
</g>
<g id="Group_11">
<g id="Group_12">
<path id="Vector_6" d="M55.4951 105.445H49.9453V110.995H55.4951V105.445Z" fill="white"/>
</g>
</g>
<g id="Group_13">
<g id="Group_14">
<path id="Vector_7" d="M61.042 83.2461H55.4922V88.7959H61.042V83.2461Z" fill="white"/>
</g>
</g>
<g id="Group_15">
<g id="Group_16">
<path id="Vector_8" d="M61.042 94.3438H55.4922V99.8936H61.042V94.3438Z" fill="white"/>
</g>
</g>
<g id="Group_17">
<g id="Group_18">
<path id="Vector_9" d="M110.991 66.5977H105.441V72.1475H110.991V66.5977Z" fill="white"/>
</g>
</g>
<g id="Group_19">
<g id="Group_20">
<path id="Vector_10" d="M5.54982 66.5977H0V72.1475H5.54982V66.5977Z" fill="white"/>
</g>
</g>
<g id="Group_21">
<g id="Group_22">
<path id="Vector_11" d="M5.54982 38.8477H0V44.3975H5.54982V38.8477Z" fill="white"/>
</g>
</g>
<g id="Group_23">
<g id="Group_24">
<path id="Vector_12" d="M61.0449 5.54688V11.0967H49.9453V16.6465H66.5948V11.0967V5.54688H61.0449Z" fill="white"/>
</g>
</g>
<g id="Group_25">
<g id="Group_26">
<path id="Vector_13" d="M105.449 44.3945V49.9443H94.3497V55.4942H77.7003V49.9443H72.1505V55.4942H61.0508V61.044H77.7003V66.5938H66.6006H61.0508V61.044H55.501V66.5938H49.9512V61.044H44.4014V66.5938H38.8516V72.1436H49.9512V77.6934H55.501V72.1436H66.6006V77.6934H61.0508V83.2432H66.6006V94.3429H72.1505V99.8927H77.7003V94.3429H94.3497V83.2432H99.8995V77.6934H94.3497V66.5938H83.2501V61.044H94.3497V66.5938H99.8995V61.044H105.449V55.4942H110.999V49.9443V44.3945H105.449ZM88.7999 72.1436V88.7931H72.1505V72.1436H88.7999Z" fill="white"/>
</g>
</g>
<g id="Group_27">
<g id="Group_28">
<path id="Vector_14" d="M72.1465 33.3008H66.5967V38.8506H61.0469V44.4004V49.9502H66.5967V44.4004H72.1465V38.8506H77.6963V33.3008H72.1465Z" fill="white"/>
</g>
</g>
<g id="Group_29">
<g id="Group_30">
<path id="Vector_15" d="M72.1465 105.445H61.0469V110.995H72.1465V105.445Z" fill="white"/>
</g>
</g>
<g id="Group_31">
<g id="Group_32">
<path id="Vector_16" d="M49.9483 5.54688H44.3984V11.0967H49.9483V5.54688Z" fill="white"/>
</g>
</g>
<g id="Group_33">
<g id="Group_34">
<path id="Vector_17" d="M94.3428 44.3945H88.793V49.9443H94.3428V44.3945Z" fill="white"/>
</g>
</g>
<g id="Group_35">
<g id="Group_36">
<path id="Vector_18" d="M99.8975 38.8477H94.3477V44.3975H99.8975V38.8477Z" fill="white"/>
</g>
</g>
<g id="Group_37">
<g id="Group_38">
<path id="Vector_19" d="M27.7451 66.5977H22.1953V72.1475H27.7451V66.5977Z" fill="white"/>
</g>
</g>
<g id="Group_39">
<g id="Group_40">
<path id="Vector_20" d="M33.2989 105.447V83.2481H38.8487V77.6983V72.1484H33.2989V77.6983H16.6494V72.1484H11.0996H5.54982V77.6983H0V110.997H33.2989H44.3985V105.447H33.2989ZM27.7491 105.447H5.54982V83.2481H27.7491V105.447Z" fill="white"/>
</g>
</g>
<g id="Group_41">
<g id="Group_42">
<path id="Vector_21" d="M38.8545 33.3008H33.3047V38.8506H38.8545V33.3008Z" fill="white"/>
</g>
</g>
<g id="Group_43">
<g id="Group_44">
<path id="Vector_22" d="M38.8487 0H33.2989H0V33.2989H5.54982V38.8487H11.0996V33.2989H16.6494V38.8487H22.1993V33.2989H33.2989V22.1993H38.8487V16.6495H33.2989V5.54982H38.8487H44.3985V0H38.8487ZM27.7491 27.7491H5.54982V5.54982H27.7491V27.7491Z" fill="white"/>
</g>
</g>
<g id="Group_45">
<g id="Group_46">
<path id="Vector_23" d="M72.1514 16.6523H66.6016V22.2022H72.1514V16.6523Z" fill="white"/>
</g>
</g>
<g id="Group_47">
<g id="Group_48">
<path id="Vector_24" d="M61.042 0H55.4922V5.54982H61.042V0Z" fill="white"/>
</g>
</g>
<g id="Group_49">
<g id="Group_50">
<path id="Vector_25" d="M66.5978 33.2989V27.749H61.048V22.1992H55.4982V27.749H44.3985V22.1992H38.8487V27.749V33.2989H44.3985V44.3985H27.7491V38.8487H22.1993V44.3985H5.54982V49.9483H16.6495V55.4981H0V61.0479H16.6495V66.5978H22.1993V61.0479H27.7491V66.5978H33.2989V61.0479H44.3985V55.4981H38.8487V49.9483H44.3985H49.9483V55.4981H55.4982H61.048V49.9483H55.4982V44.3985H49.9483V33.2989H66.5978ZM33.2989 55.4981H22.1993V49.9483H33.2989V55.4981Z" fill="white"/>
</g>
</g>
<g id="Group_51">
<g id="Group_52">
<path id="Vector_26" d="M49.9512 88.7949V83.2451V77.6953H44.4014V83.2451H38.8516V88.7949H44.4014V94.3448H38.8516V99.8946H49.9512V94.3448H55.501V88.7949H49.9512Z" fill="white"/>
</g>
</g>
<g id="Group_53">
<g id="Group_54">
<path id="Vector_27" d="M99.8946 99.8936V94.3438H94.3448V99.8936H77.6953V105.443H88.7949V110.993H94.3448V105.443H105.444V110.993H110.994V105.443V99.8936H99.8946Z" fill="white"/>
</g>
</g>
<g id="Group_55">
<g id="Group_56">
<path id="Vector_28" d="M105.444 77.6953V83.2451H99.8945V88.7949H110.994V83.2451V77.6953H105.444Z" fill="white"/>
</g>
</g>
</g>
</svg>
