<svg width="61" height="53" viewBox="0 0 61 53" fill="none" xmlns="http://www.w3.org/2000/svg">
<g clip-path="url(#clip0_2656_3871)">
<path fill-rule="evenodd" clip-rule="evenodd" d="M38.125 45.4275C40.1276 45.4275 42.1107 45.0357 43.9609 44.2748C45.8111 43.5137 47.4923 42.3984 48.9084 40.9923C50.3245 39.5861 51.4477 37.9167 52.2142 36.0795C52.9805 34.2423 53.375 32.2732 53.375 30.2846C53.375 24.2605 50.9649 18.4829 46.6751 14.2232C42.3852 9.96341 36.5668 7.57031 30.5 7.57031C24.4332 7.57031 18.6148 9.96341 14.3249 14.2232C10.035 18.4829 7.625 24.2605 7.625 30.2846C7.625 32.2732 8.01946 34.2423 8.78583 36.0795C9.55222 37.9167 10.6755 39.5861 12.0916 40.9923C13.5077 42.3984 15.1889 43.5137 17.0391 44.2748C18.8893 45.0357 20.8724 45.4275 22.875 45.4275H38.125ZM30.5 13.6275C26.051 13.6275 21.7842 15.3824 18.6382 18.5062C15.4923 21.63 13.725 25.8668 13.725 30.2846C13.725 31.4777 13.9617 32.6591 14.4215 33.7616C14.8813 34.864 15.5553 35.8655 16.405 36.7091C17.2546 37.5529 18.2632 38.222 19.3734 38.6787C20.4836 39.1353 21.6735 39.3703 22.875 39.3703H38.125C39.3265 39.3703 40.5164 39.1353 41.6266 38.6787C42.7368 38.222 43.7454 37.5529 44.595 36.7091C45.4447 35.8655 46.1186 34.864 46.5785 33.7616C47.0383 32.6591 47.275 31.4777 47.275 30.2846C47.275 25.8668 45.5077 21.63 42.3618 18.5062C39.2158 15.3824 34.949 13.6275 30.5 13.6275Z" fill="#523A28"/>
<path fill-rule="evenodd" clip-rule="evenodd" d="M19.825 53C17.2215 53 14.6436 52.4125 12.2383 51.271C9.83308 50.1295 7.64757 48.4564 5.80661 46.3471C3.96572 44.2379 2.50541 41.734 1.50909 38.9782C0.512792 36.2223 0 33.2686 0 30.2857C0 22.2535 3.21339 14.5502 8.93325 8.87047C14.6531 3.19081 22.4109 0 30.5 0C38.5891 0 46.3469 3.19081 52.0667 8.87047C57.7867 14.5502 61 22.2535 61 30.2857C61 33.2686 60.4871 36.2223 59.4909 38.9782C58.4946 41.734 57.0342 44.2379 55.1934 46.3471C53.3524 48.4564 51.167 50.1295 48.7617 51.271C46.3563 52.4125 43.7785 53 41.175 53H19.825ZM13.2466 13.1535C17.8225 8.60979 24.0287 6.05714 30.5 6.05714C36.9713 6.05714 43.1775 8.60979 47.7534 13.1535C52.3293 17.6973 54.9 23.8598 54.9 30.2857C54.9 32.5842 54.5041 34.8448 53.7497 36.9316C52.9953 39.0183 51.9073 40.8636 50.5836 42.3802C49.2615 43.8951 47.7394 45.0427 46.1312 45.8059C44.5271 46.5673 42.8459 46.9429 41.175 46.9429H19.825C18.1541 46.9429 16.4729 46.5673 14.8687 45.8059C13.2606 45.0427 11.7385 43.8951 10.4163 42.3802C9.09269 40.8636 8.00477 39.0183 7.25035 36.9316C6.49591 34.8448 6.1 32.5842 6.1 30.2857C6.1 23.8598 8.67071 17.6973 13.2466 13.1535Z" fill="#523A28"/>
<path d="M38.125 37.8588H30.4933C29.9809 37.8584 29.4723 37.8066 28.975 37.7059C28.0112 37.5105 27.0896 37.1307 26.2639 36.5827C25.0098 35.7508 24.0325 34.5684 23.4554 33.1848C23.2683 32.7361 23.1259 32.2729 23.029 31.8017C22.8271 30.8197 22.8227 29.8027 23.0216 28.8102C23.3157 27.3415 24.0419 25.9924 25.1084 24.9336C26.1746 23.8747 27.5333 23.1536 29.0124 22.8615C29.0587 22.8522 29.1049 22.8436 29.1513 22.8353C29.5983 22.7556 30.0497 22.716 30.5 22.716C31.4966 22.716 32.4883 22.9099 33.4179 23.2923C34.8112 23.8653 36.002 24.8358 36.8399 26.0809C37.6779 27.326 38.125 28.7899 38.125 30.2874H32.025C32.025 29.9879 31.9356 29.6952 31.768 29.4461C31.6004 29.1971 31.3622 29.003 31.0836 28.8883C30.805 28.7737 30.4983 28.7437 30.2025 28.8022C29.9066 28.8606 29.6349 29.0048 29.4217 29.2166C29.2083 29.4283 29.0631 29.6982 29.0043 29.992C28.9454 30.2857 28.9756 30.5902 29.0911 30.8669C29.2065 31.1436 29.402 31.3801 29.6527 31.5465C29.9036 31.7129 30.1984 31.8017 30.5 31.8017H38.125C38.3252 31.8017 38.5236 31.7625 38.7086 31.6864C38.8936 31.6103 39.0617 31.4988 39.2033 31.3581C39.345 31.2175 39.4572 31.0506 39.5339 30.8669C39.6105 30.6832 39.65 30.4862 39.65 30.2874C39.65 27.8777 38.686 25.5668 36.97 23.8629C35.254 22.1589 32.9267 21.2017 30.5 21.2017C30.2368 21.2017 29.9748 21.2129 29.7146 21.2351C29.0752 21.2898 28.4466 21.4109 27.8389 21.5945C27.2409 21.7748 26.6631 22.0158 26.1146 22.3132C25.4863 22.6539 24.8964 23.0688 24.3588 23.5521C24.2469 23.6527 24.1372 23.7563 24.03 23.8629C23.2793 24.6082 22.6725 25.47 22.2273 26.4052C22.0048 26.8728 21.8226 27.3588 21.6832 27.8579C21.5237 28.4284 21.42 29.016 21.3753 29.6126C21.3585 29.8364 21.35 30.0615 21.35 30.2874C21.35 31.4747 21.5844 32.6566 22.0465 33.7643C22.7391 35.4246 23.9118 36.8435 25.4166 37.8419C25.4251 37.8476 25.4336 37.8532 25.4422 37.8588H22.875C21.8737 37.8588 20.8821 37.663 19.9571 37.2825C19.032 36.9019 18.1914 36.3442 17.4834 35.6411C16.7753 34.9381 16.2136 34.1034 15.8304 33.1848C15.4472 32.2663 15.25 31.2817 15.25 30.2874C15.25 26.2712 16.8567 22.4196 19.7166 19.5797C22.5766 16.74 26.4554 15.1445 30.5 15.1445C34.5446 15.1445 38.4234 16.74 41.2834 19.5797C44.1433 22.4196 45.75 26.2712 45.75 30.2874C45.75 31.2817 45.5528 32.2663 45.1696 33.1848C44.7864 34.1034 44.2247 34.9381 43.5166 35.6411C42.8086 36.3442 41.968 36.9019 41.0429 37.2825C40.1179 37.663 39.1263 37.8588 38.125 37.8588Z" fill="#523A28"/>
</g>
<defs>
<clipPath id="clip0_2656_3871">
<rect width="61" height="53" fill="white"/>
</clipPath>
</defs>
</svg>
