<svg width="69" height="69" viewBox="0 0 69 69" fill="none" xmlns="http://www.w3.org/2000/svg">
<path d="M1.44795 34.1648C1.44634 39.975 2.9645 45.6483 5.85125 50.6487L1.17188 67.7339L18.6564 63.1494C23.4924 65.7821 28.9107 67.1615 34.4169 67.1619H34.4314C52.6082 67.1619 67.4046 52.3709 67.4124 34.1908C67.4159 25.3813 63.9882 17.0973 57.7607 10.865C51.5342 4.63314 43.2532 1.19933 34.43 1.19531C16.251 1.19531 1.45573 15.9855 1.44822 34.1648" fill="url(#paint0_linear_2355_5652)"/>
<path d="M5.38453 51.1578L5.3294 51.3591L0.71105 68.2213L17.9846 63.6922L18.1766 63.6418L18.3508 63.7368C23.2675 66.4175 28.8038 67.8312 34.4375 67.8333C34.4376 67.8333 34.4376 67.8333 34.4377 67.8333H34.4523C53.0051 67.8333 68.1093 52.734 68.1172 34.1792C68.1204 25.1858 64.6221 16.7313 58.2658 10.3694C51.9088 4.00845 43.4589 0.503751 34.4523 0.5L5.38453 51.1578ZM5.38453 51.1578L5.2802 50.9771M5.38453 51.1578L5.2802 50.9771M5.2802 50.9771C2.33458 45.8739 0.784949 40.084 0.786798 34.1522M5.2802 50.9771L0.786798 34.1522M0.786798 34.1522C0.794193 15.5972 15.896 0.500112 34.4521 0.5L0.786798 34.1522ZM9.97305 49.5277L9.97325 49.528L10.5322 50.4152L7.72074 60.678L7.49187 61.5134L8.32978 61.2938L18.8754 58.5289L19.7328 59.0374C19.7329 59.0374 19.7329 59.0374 19.7329 59.0375C24.1693 61.6697 29.2554 63.0622 34.4407 63.0649H34.441H34.4523C50.3795 63.0649 63.3417 50.1054 63.3488 34.1775V34.1774C63.3507 26.4589 60.3479 19.1993 54.8926 13.7399L54.8925 13.7399C49.437 8.28113 42.1812 5.27141 34.4632 5.26813H34.463C18.5235 5.26813 5.56147 18.2259 5.5552 34.154C5.55302 39.6114 7.07982 44.9273 9.97305 49.5277Z" fill="url(#paint1_linear_2355_5652)" stroke="#34B93E"/>
<path d="M25.907 19.8777C25.2675 18.4563 24.5944 18.4276 23.9863 18.4027C23.4882 18.3812 22.9189 18.3828 22.3502 18.3828C21.7809 18.3828 20.8559 18.597 20.074 19.4507C19.2913 20.3052 17.0859 22.3701 17.0859 26.57C17.0859 30.7701 20.145 34.829 20.5715 35.3991C20.9985 35.9681 26.4771 44.8626 35.154 48.2844C42.3652 51.128 43.8327 50.5624 45.3978 50.4198C46.9631 50.2778 50.4486 48.3554 51.1597 46.362C51.8714 44.3689 51.8714 42.6605 51.658 42.3034C51.4446 41.9477 50.8753 41.7341 50.0216 41.3074C49.1677 40.8804 44.9708 38.8152 44.1884 38.5303C43.4057 38.2456 42.8367 38.1036 42.2674 38.9583C41.6981 39.8118 40.0633 41.7341 39.565 42.3034C39.0673 42.8741 38.569 42.9451 37.7156 42.5181C36.8614 42.0898 34.1121 41.1895 30.8504 38.2816C28.3126 36.0188 26.5993 33.2245 26.1013 32.3698C25.6033 31.5163 26.048 31.0537 26.476 30.6283C26.8596 30.2458 27.33 29.6315 27.7572 29.1332C28.1829 28.6347 28.3249 28.279 28.6096 27.7097C28.8945 27.1398 28.7519 26.6413 28.5388 26.2143C28.3249 25.7873 26.6661 21.5655 25.907 19.8777Z" fill="white"/>
<defs>
<linearGradient id="paint0_linear_2355_5652" x1="3313.2" y1="6655.05" x2="3313.2" y2="1.19531" gradientUnits="userSpaceOnUse">
<stop stop-color="#34B93E"/>
<stop offset="1" stop-color="#34B93E"/>
</linearGradient>
<linearGradient id="paint1_linear_2355_5652" x1="3430.86" y1="6892.46" x2="3430.86" y2="0" gradientUnits="userSpaceOnUse">
<stop stop-color="#F9F9F9"/>
<stop offset="1" stop-color="white"/>
</linearGradient>
</defs>
</svg>
