<svg width="164" height="50" viewBox="0 0 164 50" fill="none" xmlns="http://www.w3.org/2000/svg">
<rect width="164" height="50" rx="10" fill="#0B5CFF"/>
<path d="M24.5 16.0069V29.5033C24.5123 32.555 27.2856 35.01 30.6688 35H52.5545C53.1746 35 53.6781 34.5494 53.6781 34.0028V20.5064C53.6617 17.4566 50.8884 14.9997 47.5093 15.0117H25.6196C25.0014 15.0117 24.5 15.4602 24.5 16.0069ZM55.0699 21.2733L64.1082 15.3401C64.8921 14.7554 65.5 14.9015 65.5 15.9588V34.0528C65.5 35.2563 64.757 35.1101 64.1082 34.6716L55.0699 28.7504V21.2733Z" fill="white"/>
<path d="M95.2547 30.8201H85.288C84.6353 30.8201 83.9984 30.49 83.6958 29.935C83.3457 29.29 83.4729 28.525 84.0142 28.03L90.9561 21.49H85.9726C84.6033 21.49 83.5048 20.44 83.5048 19.1649H92.6914C93.3442 19.1649 93.9809 19.4949 94.2835 20.0499C94.6338 20.6949 94.5064 21.4599 93.9651 21.9549L87.0234 28.495H92.771C94.1402 28.495 95.2547 29.5451 95.2547 30.8201ZM134.708 19C133.275 19 132.001 19.585 131.109 20.515C130.218 19.585 128.944 19 127.511 19C124.868 19 122.703 21.13 122.703 23.62V30.8201C124.072 30.8201 125.171 29.77 125.171 28.495V23.6051C125.171 22.405 126.158 21.385 127.431 21.3401C128.769 21.2951 129.867 22.3 129.867 23.545V28.495C129.867 29.7851 130.982 30.8201 132.335 30.8201V23.59C132.335 22.39 133.322 21.37 134.596 21.325C135.934 21.28 137.032 22.285 137.032 23.53V28.48C137.032 29.7701 138.147 30.805 139.5 30.805V23.6052C139.516 21.13 137.35 19 134.708 19ZM107.737 25C107.737 28.315 104.887 31 101.368 31C97.8499 31 95 28.315 95 25C95 21.685 97.8499 19 101.368 19C104.887 19 107.737 21.685 107.737 25ZM105.269 25C105.269 22.975 103.518 21.325 101.368 21.325C99.2191 21.325 97.4677 22.975 97.4677 25C97.4677 27.0251 99.2191 28.6751 101.368 28.6751C103.518 28.6751 105.269 27.0251 105.269 25ZM121.461 25C121.461 28.315 118.611 31 115.093 31C111.574 31 108.724 28.315 108.724 25C108.724 21.685 111.574 19 115.093 19C118.611 19 121.461 21.685 121.461 25H121.461ZM118.993 25C118.993 22.975 117.242 21.325 115.093 21.325C112.943 21.325 111.192 22.975 111.192 25C111.192 27.0251 112.943 28.6751 115.093 28.6751C117.242 28.6751 118.993 27.0251 118.993 25Z" fill="white"/>
</svg>
